<svg xmlns="http://www.w3.org/2000/svg" width="880" height="1200" viewBox="0 0 880 1200" role="img" aria-label="Seed That Refused"><title>Seed That Refused</title><rect width="880" height="1200" fill="#e6ded2"/><path d="M 785.24 502.37 Q 785.24 502.37 749.65 622.34 Q 714.05 742.3 598.65 777.08 Q 483.24 811.86 371.3 759.99 Q 259.35 708.13 197.71 605.25 Q 136.07 502.37 204.11 384.44 Q 272.15 266.52 377.7 227.43 Q 483.24 188.35 598.98 242.83 Q 714.71 297.32 749.98 399.84 Z" fill="#00000014"/><path d="M 778.68 502.37 Q 778.68 502.37 756.53 596.16 Q 734.37 689.96 635.86 752.8 Q 537.34 815.65 439.25 786.52 Q 341.16 757.4 257.22 691.74 Q 173.29 626.08 191.38 514.23 Q 209.47 402.38 271.35 332.72 Q 333.23 263.05 435.54 234.47 Q 537.85 205.89 629.34 251.64 Q 720.83 297.38 749.75 399.87 Z" fill="#b25c3f"/><path d="M 586.29 537 Q 586.29 537 569.82 571.18 Q 553.35 605.37 518.58 630.74 Q 483.8 656.12 439.92 650.73 Q 396.03 645.35 368.02 610.5 Q 340 575.65 341.63 532.55 Q 343.26 489.46 370.13 448.21 Q 397 406.96 438.96 423.21 Q 480.91 439.45 514.7 453.46 Q 548.49 467.47 567.39 502.24 Z" fill="#9c6b4f" opacity="0.85"/><circle cx="643.48" cy="1096.42" r="1.48" fill="#3a2f26" opacity="0.13"/><circle cx="410.64" cy="495.25" r="1.84" fill="#3a2f26" opacity="0.04"/><circle cx="845.12" cy="375.93" r="0.87" fill="#3a2f26" opacity="0.12"/><circle cx="554.11" cy="1135.67" r="1.34" fill="#3a2f26" opacity="0.06"/><circle cx="61.79" cy="957.01" r="0.88" fill="#3a2f26" opacity="0.11"/><circle cx="185.35" cy="916.92" r="2.25" fill="#3a2f26" opacity="0.11"/><circle cx="723.1" cy="1164.72" r="1.5" fill="#3a2f26" opacity="0.08"/><circle cx="395.1" cy="374.07" r="0.81" fill="#3a2f26" opacity="0.13"/><circle cx="825.13" cy="437.78" r="1.25" fill="#3a2f26" opacity="0.04"/><circle cx="311.09" cy="305.56" r="2.15" fill="#3a2f26" opacity="0.12"/><circle cx="324.43" cy="755.32" r="0.87" fill="#3a2f26" opacity="0.06"/><circle cx="132.2" cy="362.5" r="2.07" fill="#3a2f26" opacity="0.05"/><circle cx="817.17" cy="912.73" r="2.12" fill="#3a2f26" opacity="0.07"/><circle cx="263.36" cy="1198.74" r="0.89" fill="#3a2f26" opacity="0.11"/><circle cx="489.09" cy="826.54" r="1.84" fill="#3a2f26" opacity="0.09"/><circle cx="290.51" cy="565.57" r="2.07" fill="#3a2f26" opacity="0.05"/><circle cx="119.77" cy="14.98" r="1.76" fill="#3a2f26" opacity="0.12"/><circle cx="330.23" cy="70.46" r="2.25" fill="#3a2f26" opacity="0.13"/><circle cx="544.99" cy="186.7" r="1.34" fill="#3a2f26" opacity="0.06"/><circle cx="32.47" cy="562.3" r="1.08" fill="#3a2f26" opacity="0.06"/><circle cx="8.23" cy="1093.88" r="1.45" fill="#3a2f26" opacity="0.03"/><circle cx="381.72" cy="490.12" r="0.95" fill="#3a2f26" opacity="0.05"/><circle cx="517.13" cy="806.16" r="1.41" fill="#3a2f26" opacity="0.06"/><circle cx="204.9" cy="303.24" r="1" fill="#3a2f26" opacity="0.1"/><circle cx="428.29" cy="388.4" r="1.37" fill="#3a2f26" opacity="0.06"/><circle cx="309.23" cy="679.26" r="0.89" fill="#3a2f26" opacity="0.04"/><circle cx="300.27" cy="630.7" r="1.28" fill="#3a2f26" opacity="0.06"/><circle cx="70.1" cy="511.62" r="0.63" fill="#3a2f26" opacity="0.1"/><circle cx="123.99" cy="492.34" r="1.68" fill="#3a2f26" opacity="0.12"/><circle cx="249.84" cy="117.99" r="1.58" fill="#3a2f26" opacity="0.14"/><circle cx="305.6" cy="415.96" r="0.79" fill="#3a2f26" opacity="0.08"/><circle cx="721.6" cy="227.68" r="2.22" fill="#3a2f26" opacity="0.09"/><circle cx="298.24" cy="421.59" r="1.5" fill="#3a2f26" opacity="0.11"/><circle cx="528.04" cy="842.13" r="1.47" fill="#3a2f26" opacity="0.03"/><circle cx="784.14" cy="778.94" r="2.22" fill="#3a2f26" opacity="0.04"/><circle cx="510.44" cy="341.12" r="2.07" fill="#3a2f26" opacity="0.06"/><circle cx="593.49" cy="156.98" r="1.48" fill="#3a2f26" opacity="0.07"/><circle cx="856.86" cy="871.43" r="1.59" fill="#3a2f26" opacity="0.1"/><circle cx="402.59" cy="1117.89" r="1.4" fill="#3a2f26" opacity="0.06"/><circle cx="126.18" cy="852.8" r="1.41" fill="#3a2f26" opacity="0.14"/><circle cx="395.77" cy="875.08" r="1.9" fill="#3a2f26" opacity="0.11"/><circle cx="281.53" cy="326.74" r="1.36" fill="#3a2f26" opacity="0.04"/><circle cx="299.01" cy="110.54" r="1.66" fill="#3a2f26" opacity="0.09"/><circle cx="699.59" cy="828.97" r="1.07" fill="#3a2f26" opacity="0.04"/><circle cx="800.65" cy="743.68" r="1.76" fill="#3a2f26" opacity="0.09"/><circle cx="117.38" cy="1044.65" r="0.81" fill="#3a2f26" opacity="0.06"/><circle cx="698.13" cy="593" r="1" fill="#3a2f26" opacity="0.07"/><circle cx="98.81" cy="1067.81" r="0.9" fill="#3a2f26" opacity="0.1"/><circle cx="242.15" cy="205.36" r="2.33" fill="#3a2f26" opacity="0.08"/><circle cx="383.51" cy="788.85" r="1.27" fill="#3a2f26" opacity="0.1"/><circle cx="228.77" cy="51.57" r="2.16" fill="#3a2f26" opacity="0.11"/><circle cx="575.35" cy="515.69" r="0.61" fill="#3a2f26" opacity="0.05"/><circle cx="790.07" cy="2.65" r="2.13" fill="#3a2f26" opacity="0.1"/><circle cx="396.31" cy="632.43" r="1.29" fill="#3a2f26" opacity="0.08"/><circle cx="853.31" cy="133.87" r="0.94" fill="#3a2f26" opacity="0.1"/><circle cx="250.23" cy="278.29" r="0.91" fill="#3a2f26" opacity="0.12"/><circle cx="61.61" cy="693.5" r="1.07" fill="#3a2f26" opacity="0.1"/><circle cx="21.06" cy="1111.98" r="0.7" fill="#3a2f26" opacity="0.1"/><circle cx="55.85" cy="664.95" r="2.26" fill="#3a2f26" opacity="0.06"/><circle cx="482.67" cy="18.51" r="1.39" fill="#3a2f26" opacity="0.07"/><circle cx="54.57" cy="1139.42" r="2.08" fill="#3a2f26" opacity="0.05"/><circle cx="751.58" cy="299.71" r="1.43" fill="#3a2f26" opacity="0.12"/><circle cx="30.34" cy="774.38" r="2.09" fill="#3a2f26" opacity="0.03"/><circle cx="505.94" cy="1072.9" r="1.36" fill="#3a2f26" opacity="0.1"/><circle cx="480.72" cy="999.43" r="0.76" fill="#3a2f26" opacity="0.12"/><circle cx="186.04" cy="185.09" r="2.06" fill="#3a2f26" opacity="0.04"/><circle cx="711.5" cy="1035.77" r="2.21" fill="#3a2f26" opacity="0.04"/><circle cx="210.83" cy="243.57" r="2.39" fill="#3a2f26" opacity="0.07"/><circle cx="519.13" cy="1080.24" r="1.09" fill="#3a2f26" opacity="0.07"/><circle cx="257.57" cy="207.2" r="2.29" fill="#3a2f26" opacity="0.06"/><circle cx="863.65" cy="509.1" r="0.89" fill="#3a2f26" opacity="0.07"/><circle cx="277.76" cy="691.28" r="2.21" fill="#3a2f26" opacity="0.04"/><circle cx="19.24" cy="90.34" r="0.81" fill="#3a2f26" opacity="0.07"/><circle cx="483.3" cy="483.18" r="2.2" fill="#3a2f26" opacity="0.1"/><circle cx="93.7" cy="562.55" r="1.88" fill="#3a2f26" opacity="0.04"/><circle cx="204.11" cy="291" r="2.13" fill="#3a2f26" opacity="0.11"/><circle cx="481.24" cy="722.44" r="1.12" fill="#3a2f26" opacity="0.04"/><circle cx="55.02" cy="971.23" r="0.62" fill="#3a2f26" opacity="0.1"/><circle cx="496.72" cy="793" r="1.68" fill="#3a2f26" opacity="0.13"/><circle cx="767.74" cy="1058.02" r="1.53" fill="#3a2f26" opacity="0.04"/><circle cx="865.17" cy="583.02" r="1.05" fill="#3a2f26" opacity="0.07"/><circle cx="626.27" cy="329.06" r="2.24" fill="#3a2f26" opacity="0.12"/><circle cx="502.27" cy="582.28" r="2.15" fill="#3a2f26" opacity="0.14"/><circle cx="534.44" cy="392.65" r="2.18" fill="#3a2f26" opacity="0.1"/><circle cx="871.62" cy="548.59" r="2.09" fill="#3a2f26" opacity="0.06"/><circle cx="837.38" cy="666.41" r="1.46" fill="#3a2f26" opacity="0.09"/><circle cx="633.47" cy="395.22" r="1.16" fill="#3a2f26" opacity="0.11"/><circle cx="614.87" cy="1140.16" r="1.95" fill="#3a2f26" opacity="0.1"/><circle cx="225.92" cy="936.3" r="1.25" fill="#3a2f26" opacity="0.13"/><circle cx="200.81" cy="82.19" r="0.84" fill="#3a2f26" opacity="0.09"/><circle cx="646.54" cy="998.65" r="0.97" fill="#3a2f26" opacity="0.03"/><circle cx="349.6" cy="1110.96" r="0.86" fill="#3a2f26" opacity="0.14"/><circle cx="159.98" cy="698.65" r="2.35" fill="#3a2f26" opacity="0.1"/><circle cx="542.64" cy="476.4" r="1.33" fill="#3a2f26" opacity="0.09"/><circle cx="93.65" cy="828.05" r="1.47" fill="#3a2f26" opacity="0.08"/><circle cx="133.97" cy="147.21" r="0.93" fill="#3a2f26" opacity="0.06"/><circle cx="400.21" cy="1108.87" r="1.85" fill="#3a2f26" opacity="0.11"/><circle cx="106" cy="748.68" r="0.95" fill="#3a2f26" opacity="0.06"/><circle cx="775.74" cy="896.44" r="1.08" fill="#3a2f26" opacity="0.13"/><circle cx="771.09" cy="329.17" r="2.18" fill="#3a2f26" opacity="0.08"/><circle cx="653.81" cy="443.08" r="1.82" fill="#3a2f26" opacity="0.07"/><circle cx="304.8" cy="799.4" r="2.26" fill="#3a2f26" opacity="0.13"/><circle cx="858.23" cy="476.31" r="0.7" fill="#3a2f26" opacity="0.11"/><circle cx="343.77" cy="361.06" r="2.39" fill="#3a2f26" opacity="0.12"/><circle cx="349.24" cy="40.34" r="0.74" fill="#3a2f26" opacity="0.09"/><circle cx="397.33" cy="519.78" r="0.99" fill="#3a2f26" opacity="0.14"/><circle cx="51.07" cy="101.64" r="1.55" fill="#3a2f26" opacity="0.08"/><circle cx="677.95" cy="361.22" r="1.63" fill="#3a2f26" opacity="0.1"/><circle cx="830.47" cy="402.33" r="1.7" fill="#3a2f26" opacity="0.06"/><circle cx="397.92" cy="266.95" r="1.65" fill="#3a2f26" opacity="0.1"/><circle cx="197.35" cy="160.28" r="2.33" fill="#3a2f26" opacity="0.08"/><circle cx="513.24" cy="81.8" r="1.66" fill="#3a2f26" opacity="0.09"/><circle cx="733.67" cy="1070.96" r="2.24" fill="#3a2f26" opacity="0.07"/><circle cx="794.43" cy="1032.95" r="1.58" fill="#3a2f26" opacity="0.09"/><circle cx="798.93" cy="86.59" r="1.91" fill="#3a2f26" opacity="0.07"/><circle cx="62.24" cy="995.06" r="1.95" fill="#3a2f26" opacity="0.04"/><circle cx="259.46" cy="1086.76" r="1.21" fill="#3a2f26" opacity="0.06"/><circle cx="181.33" cy="397.3" r="1.9" fill="#3a2f26" opacity="0.09"/><circle cx="90.76" cy="69.31" r="2.26" fill="#3a2f26" opacity="0.1"/><circle cx="744.04" cy="487.48" r="1.99" fill="#3a2f26" opacity="0.12"/><circle cx="605.44" cy="156.99" r="1.42" fill="#3a2f26" opacity="0.13"/><circle cx="404.85" cy="1017.9" r="0.77" fill="#3a2f26" opacity="0.04"/><circle cx="588.61" cy="182.73" r="1.8" fill="#3a2f26" opacity="0.04"/><circle cx="32.53" cy="772.63" r="1.84" fill="#3a2f26" opacity="0.1"/><circle cx="460.09" cy="798.38" r="1.1" fill="#3a2f26" opacity="0.13"/><circle cx="635.96" cy="280.26" r="0.98" fill="#3a2f26" opacity="0.08"/><circle cx="118.51" cy="87.04" r="2.37" fill="#3a2f26" opacity="0.11"/><circle cx="84.66" cy="1150.1" r="1.84" fill="#3a2f26" opacity="0.08"/><circle cx="544.83" cy="100.73" r="1.38" fill="#3a2f26" opacity="0.06"/><circle cx="398.7" cy="427.55" r="1.18" fill="#3a2f26" opacity="0.07"/><circle cx="65.09" cy="418.74" r="1.94" fill="#3a2f26" opacity="0.13"/><circle cx="80.65" cy="121.19" r="2.2" fill="#3a2f26" opacity="0.07"/><circle cx="691.11" cy="1138.13" r="1.11" fill="#3a2f26" opacity="0.12"/><circle cx="823.84" cy="789.91" r="0.98" fill="#3a2f26" opacity="0.13"/><circle cx="45.72" cy="631.42" r="2.37" fill="#3a2f26" opacity="0.08"/><circle cx="175.95" cy="1171.51" r="1.8" fill="#3a2f26" opacity="0.12"/><circle cx="700.87" cy="365.5" r="0.71" fill="#3a2f26" opacity="0.06"/><circle cx="235.45" cy="1090.78" r="1.76" fill="#3a2f26" opacity="0.09"/><circle cx="361.99" cy="772.04" r="2.18" fill="#3a2f26" opacity="0.1"/><circle cx="74.29" cy="102.27" r="0.93" fill="#3a2f26" opacity="0.13"/><circle cx="139.03" cy="923.89" r="0.98" fill="#3a2f26" opacity="0.13"/><circle cx="31.67" cy="192.88" r="0.89" fill="#3a2f26" opacity="0.11"/><circle cx="158.71" cy="441.32" r="2.25" fill="#3a2f26" opacity="0.08"/><circle cx="126.9" cy="975.27" r="1.34" fill="#3a2f26" opacity="0.05"/><circle cx="137.03" cy="252.78" r="1.76" fill="#3a2f26" opacity="0.04"/><circle cx="543.96" cy="546.56" r="1.34" fill="#3a2f26" opacity="0.06"/><circle cx="157.47" cy="131.71" r="0.82" fill="#3a2f26" opacity="0.08"/><circle cx="101.13" cy="138.59" r="0.84" fill="#3a2f26" opacity="0.12"/><circle cx="746.72" cy="448.48" r="2.02" fill="#3a2f26" opacity="0.05"/><circle cx="558.61" cy="61.98" r="0.63" fill="#3a2f26" opacity="0.09"/><circle cx="306.24" cy="819.35" r="2.24" fill="#3a2f26" opacity="0.1"/><circle cx="864.79" cy="421" r="1.83" fill="#3a2f26" opacity="0.12"/><circle cx="114.64" cy="988.42" r="2.36" fill="#3a2f26" opacity="0.13"/><circle cx="722.54" cy="762.49" r="0.99" fill="#3a2f26" opacity="0.11"/><circle cx="849.07" cy="1138.84" r="1.17" fill="#3a2f26" opacity="0.09"/><circle cx="696.49" cy="1190.86" r="1.47" fill="#3a2f26" opacity="0.04"/><circle cx="301.11" cy="986.16" r="0.65" fill="#3a2f26" opacity="0.07"/><circle cx="161.74" cy="809.64" r="2.04" fill="#3a2f26" opacity="0.13"/><circle cx="530.84" cy="370.39" r="2.21" fill="#3a2f26" opacity="0.13"/><circle cx="27.51" cy="782.72" r="0.82" fill="#3a2f26" opacity="0.07"/><circle cx="68.46" cy="48.8" r="1.41" fill="#3a2f26" opacity="0.13"/><circle cx="197.7" cy="555.74" r="0.75" fill="#3a2f26" opacity="0.06"/><circle cx="156.96" cy="1126.13" r="0.72" fill="#3a2f26" opacity="0.09"/><circle cx="146.99" cy="794.92" r="1.71" fill="#3a2f26" opacity="0.12"/><circle cx="371.38" cy="167.74" r="2.33" fill="#3a2f26" opacity="0.04"/><circle cx="26.45" cy="620.36" r="1.38" fill="#3a2f26" opacity="0.13"/><circle cx="6.87" cy="67.06" r="0.7" fill="#3a2f26" opacity="0.14"/><circle cx="308.57" cy="743.74" r="0.76" fill="#3a2f26" opacity="0.14"/><circle cx="570.86" cy="496.1" r="1.78" fill="#3a2f26" opacity="0.09"/><circle cx="508.68" cy="610.47" r="0.83" fill="#3a2f26" opacity="0.1"/><circle cx="788.05" cy="124.79" r="1.79" fill="#3a2f26" opacity="0.13"/><circle cx="212.97" cy="274.02" r="2.11" fill="#3a2f26" opacity="0.04"/><circle cx="550.88" cy="836.39" r="1.37" fill="#3a2f26" opacity="0.05"/><circle cx="807.38" cy="803.35" r="0.99" fill="#3a2f26" opacity="0.13"/><circle cx="878.5" cy="151.18" r="2.28" fill="#3a2f26" opacity="0.05"/><circle cx="837.31" cy="1163.38" r="1.65" fill="#3a2f26" opacity="0.11"/><circle cx="869.93" cy="1002.34" r="0.82" fill="#3a2f26" opacity="0.06"/><circle cx="555.05" cy="1072.7" r="2.06" fill="#3a2f26" opacity="0.14"/><circle cx="611.69" cy="185.31" r="2.03" fill="#3a2f26" opacity="0.05"/><circle cx="542.52" cy="27.22" r="1.75" fill="#3a2f26" opacity="0.1"/><circle cx="169.5" cy="810.2" r="0.78" fill="#3a2f26" opacity="0.06"/><circle cx="241.04" cy="1090.66" r="1.49" fill="#3a2f26" opacity="0.12"/><circle cx="387.84" cy="316.39" r="1.2" fill="#3a2f26" opacity="0.12"/><circle cx="63.78" cy="105.4" r="0.84" fill="#3a2f26" opacity="0.08"/><circle cx="380.72" cy="260.51" r="2.1" fill="#3a2f26" opacity="0.04"/><circle cx="146.94" cy="621.56" r="2.33" fill="#3a2f26" opacity="0.07"/><circle cx="507.99" cy="923" r="2.38" fill="#3a2f26" opacity="0.11"/><circle cx="243.36" cy="765.7" r="0.62" fill="#3a2f26" opacity="0.07"/><circle cx="807.69" cy="195.97" r="0.77" fill="#3a2f26" opacity="0.08"/><circle cx="396.01" cy="266.47" r="0.88" fill="#3a2f26" opacity="0.12"/><circle cx="431.34" cy="1034.5" r="1.35" fill="#3a2f26" opacity="0.13"/><circle cx="397.59" cy="251.06" r="0.65" fill="#3a2f26" opacity="0.05"/><circle cx="857.43" cy="1119.25" r="2.25" fill="#3a2f26" opacity="0.09"/><circle cx="397.71" cy="1193.95" r="1.4" fill="#3a2f26" opacity="0.1"/><circle cx="87.62" cy="1066.08" r="2.19" fill="#3a2f26" opacity="0.12"/><circle cx="267.23" cy="568.53" r="2.37" fill="#3a2f26" opacity="0.04"/><circle cx="599.27" cy="714.72" r="1.83" fill="#3a2f26" opacity="0.04"/><circle cx="208.34" cy="1028.79" r="1.77" fill="#3a2f26" opacity="0.11"/><circle cx="473.77" cy="934.48" r="2.26" fill="#3a2f26" opacity="0.13"/><circle cx="780.72" cy="518.42" r="0.7" fill="#3a2f26" opacity="0.12"/><circle cx="700.79" cy="291.2" r="1.57" fill="#3a2f26" opacity="0.11"/><circle cx="571.13" cy="140.92" r="1.88" fill="#3a2f26" opacity="0.04"/><circle cx="94.22" cy="388.74" r="1.46" fill="#3a2f26" opacity="0.04"/><circle cx="77.34" cy="465.42" r="1.09" fill="#3a2f26" opacity="0.07"/><circle cx="444.53" cy="586.78" r="1.63" fill="#3a2f26" opacity="0.09"/><circle cx="13.85" cy="733.94" r="2.27" fill="#3a2f26" opacity="0.14"/><circle cx="162.81" cy="174.02" r="1.43" fill="#3a2f26" opacity="0.13"/><circle cx="598.77" cy="628.84" r="0.71" fill="#3a2f26" opacity="0.03"/><circle cx="314.13" cy="985.18" r="1.28" fill="#3a2f26" opacity="0.13"/><circle cx="671.36" cy="1144.71" r="1.67" fill="#3a2f26" opacity="0.1"/><circle cx="254.04" cy="142.02" r="2.28" fill="#3a2f26" opacity="0.13"/><circle cx="317.13" cy="663.97" r="1.08" fill="#3a2f26" opacity="0.07"/><circle cx="302.7" cy="960.9" r="1.31" fill="#3a2f26" opacity="0.07"/><circle cx="639.85" cy="1089.59" r="1.74" fill="#3a2f26" opacity="0.07"/><circle cx="596.32" cy="242.98" r="1.52" fill="#3a2f26" opacity="0.04"/><circle cx="294.47" cy="145.86" r="2.35" fill="#3a2f26" opacity="0.07"/><circle cx="22.72" cy="98.45" r="1.32" fill="#3a2f26" opacity="0.13"/><circle cx="444.88" cy="327.4" r="1.64" fill="#3a2f26" opacity="0.12"/><circle cx="875.44" cy="119.66" r="2.09" fill="#3a2f26" opacity="0.06"/><circle cx="435.64" cy="887.12" r="1.1" fill="#3a2f26" opacity="0.04"/></svg>
